Coordinates
version=1
nRows=21
nColumns=12
inDegrees=yes

Units are S.I. units (second, meters, Newtons, ...)
Angles are in degrees

endheader
time	SC_y	SC_z	SC_x	AC_y	AC_z	AC_x	GH_y	GH_z	GH_yy	EL_x	PS_y
       0.0              -48.61          34.97          48.59           56.0          1.856         -13.36         -73.19          79.31          142.8          118.6          42.08
   0.01686              -48.61          34.97          48.59           56.0          1.854         -13.36          -73.2          79.31          142.7          118.6          42.08
   0.03372              -48.61          34.97          48.59           56.0          1.852         -13.36         -73.22          79.31          142.7          118.6          42.09
   0.05058              -48.61          34.96          48.58           56.0           1.85         -13.36         -73.24          79.31          142.7          118.6          42.09
   0.06744              -48.61          34.96          48.58          55.99          1.848         -13.36         -73.25          79.31          142.6          118.6          42.09
    0.0843               -48.6          34.96          48.58          55.99          1.846         -13.35         -73.27          79.32          142.6          118.6          42.09
    0.1012               -48.6          34.95          48.57          55.99          1.843         -13.35         -73.29          79.32          142.5          118.6          42.09
     0.118               -48.6          34.95          48.57          55.99          1.841         -13.35         -73.32          79.32          142.5          118.6           42.1
    0.1349               -48.6          34.94          48.56          55.99          1.838         -13.35         -73.34          79.32          142.4          118.6           42.1
    0.1517               -48.6          34.94          48.56          55.98          1.835         -13.34         -73.36          79.32          142.3          118.6           42.1
    0.1686              -48.59          34.93          48.55          55.98          1.831         -13.34         -73.39          79.32          142.3          118.6           42.1
    0.1855              -48.59          34.93          48.55          55.98          1.828         -13.34         -73.42          79.32          142.2          118.6          42.11
    0.2023              -48.59          34.92          48.54          55.98          1.824         -13.34         -73.45          79.33          142.1          118.6          42.11
    0.2192              -48.59          34.92          48.53          55.97           1.82         -13.33         -73.48          79.33          142.0          118.6          42.11
     0.236              -48.58          34.91          48.53          55.97          1.815         -13.33         -73.52          79.33          142.0          118.6          42.12
    0.2529              -48.58           34.9          48.52          55.97          1.811         -13.33         -73.56          79.33          141.9          118.6          42.12
    0.2698              -48.58          34.89          48.51          55.96          1.805         -13.32          -73.6          79.33          141.7          118.6          42.13
    0.2866              -48.57          34.89           48.5          55.96            1.8         -13.32         -73.65          79.34          141.6          118.6          42.13
    0.3035              -48.57          34.88          48.49          55.95          1.793         -13.31          -73.7          79.34          141.5          118.6          42.14
    0.3203              -48.56          34.86          48.48          55.95          1.787         -13.31         -73.76          79.34          141.4          118.6          42.14
    0.3372              -48.56          34.85          48.47          55.94          1.779          -13.3         -73.82          79.35          141.2          118.6          42.15
